<svg width="503" height="119" viewBox="0 0 503 119" fill="none" xmlns="http://www.w3.org/2000/svg">
<path d="M491.485 49.4806L486.27 50.9522C485.758 49.4806 485.033 48.1475 484.095 46.9531C483.156 45.7587 481.93 44.8095 480.415 44.1057C478.922 43.4018 477.067 43.0499 474.849 43.0499C471.521 43.0499 468.791 43.8391 466.658 45.4174C464.525 46.9958 463.459 49.0327 463.459 51.5281C463.459 53.6397 464.184 55.3567 465.635 56.679C467.106 57.9801 469.367 59.0146 472.417 59.7824L479.84 61.606C483.956 62.6085 487.038 64.1975 489.086 66.373C491.155 68.5485 492.189 71.2786 492.189 74.5633C492.189 77.336 491.421 79.7995 489.885 81.9537C488.35 84.1079 486.206 85.8036 483.455 87.0406C480.725 88.2564 477.557 88.8642 473.953 88.8642C469.154 88.8642 465.197 87.7871 462.083 85.6329C458.969 83.4574 456.975 80.3221 456.101 76.2269L461.571 74.8832C462.275 77.8052 463.651 80.0128 465.699 81.5058C467.767 82.9988 470.487 83.7453 473.857 83.7453C477.632 83.7453 480.65 82.9028 482.911 81.2179C485.172 79.5116 486.302 77.3787 486.302 74.8192C486.302 72.8356 485.641 71.172 484.319 69.8283C482.996 68.4632 480.991 67.4608 478.304 66.8209L470.274 64.9013C466.008 63.8775 462.851 62.2565 460.804 60.0383C458.756 57.8201 457.732 55.0687 457.732 51.7841C457.732 49.0753 458.468 46.6971 459.94 44.6496C461.411 42.5807 463.438 40.9597 466.019 39.7866C468.599 38.6135 471.543 38.027 474.849 38.027C479.349 38.027 482.943 39.0508 485.63 41.0983C488.339 43.1246 490.291 45.9186 491.485 49.4806Z" fill="black"/>
<path d="M406.25 106.269V38.6988H411.785V48.0729H412.457C413.139 46.6012 414.078 45.0975 415.272 43.5618C416.466 42.0048 418.045 40.6931 420.007 39.6266C421.991 38.5602 424.486 38.027 427.493 38.027C431.546 38.027 435.087 39.0934 438.115 41.2263C441.165 43.3379 443.533 46.3026 445.218 50.1204C446.924 53.917 447.777 58.3427 447.777 63.3976C447.777 68.4739 446.924 72.9209 445.218 76.7388C443.533 80.5567 441.165 83.532 438.115 85.6649C435.087 87.7978 431.567 88.8642 427.557 88.8642C424.593 88.8642 422.108 88.331 420.103 87.2646C418.119 86.1981 416.509 84.8864 415.272 83.3294C414.056 81.7511 413.118 80.2154 412.457 78.7224H411.945V106.269H406.25ZM411.881 63.3016C411.881 67.2688 412.467 70.7881 413.64 73.8594C414.835 76.9094 416.541 79.3089 418.759 81.0579C420.999 82.7855 423.708 83.6493 426.886 83.6493C430.149 83.6493 432.9 82.7535 435.14 80.9619C437.401 79.149 439.118 76.7068 440.291 73.6355C441.485 70.5641 442.082 67.1195 442.082 63.3016C442.082 59.5264 441.496 56.1245 440.323 53.0958C439.171 50.0671 437.465 47.6676 435.204 45.8973C432.943 44.1057 430.17 43.2099 426.886 43.2099C423.686 43.2099 420.967 44.0737 418.727 45.8013C416.488 47.5076 414.782 49.8751 413.608 52.9038C412.457 55.9112 411.881 59.3771 411.881 63.3016Z" fill="black"/>
<path d="M387.264 87.8407V38.6991H392.99V87.8407H387.264ZM390.175 30.2529C389.002 30.2529 387.999 29.8583 387.168 29.0691C386.336 28.2587 385.92 27.2882 385.92 26.1578C385.92 25.0273 386.336 24.0675 387.168 23.2784C387.999 22.4679 389.002 22.0626 390.175 22.0626C391.348 22.0626 392.351 22.4679 393.182 23.2784C394.014 24.0675 394.43 25.0273 394.43 26.1578C394.43 27.2882 394.014 28.2587 393.182 29.0691C392.351 29.8583 391.348 30.2529 390.175 30.2529Z" fill="black"/>
<path d="M342.171 57.1274V87.841H336.477V22.3188H342.171V46.4097H342.683C343.835 43.8716 345.616 41.8453 348.026 40.331C350.458 38.8166 353.529 38.0595 357.24 38.0595C360.567 38.0595 363.49 38.742 366.006 40.107C368.523 41.4721 370.485 43.4876 371.893 46.1538C373.301 48.8199 374.005 52.1045 374.005 56.0077V87.841H368.278V56.3596C368.278 52.3071 367.147 49.1185 364.887 46.7936C362.647 44.4474 359.618 43.2744 355.8 43.2744C353.177 43.2744 350.842 43.8289 348.794 44.938C346.746 46.0471 345.125 47.6468 343.931 49.737C342.758 51.8059 342.171 54.2694 342.171 57.1274Z" fill="black"/>
<path d="M325.105 49.4806L319.89 50.9522C319.378 49.4806 318.653 48.1475 317.715 46.9531C316.776 45.7587 315.55 44.8095 314.036 44.1057C312.543 43.4018 310.687 43.0499 308.469 43.0499C305.141 43.0499 302.411 43.8391 300.278 45.4174C298.146 46.9958 297.079 49.0327 297.079 51.5281C297.079 53.6397 297.804 55.3567 299.255 56.679C300.726 57.9801 302.987 59.0146 306.037 59.7824L313.46 61.606C317.576 62.6085 320.658 64.1975 322.706 66.373C324.775 68.5485 325.809 71.2786 325.809 74.5633C325.809 77.336 325.041 79.7995 323.506 81.9537C321.97 84.1079 319.826 85.8036 317.075 87.0406C314.345 88.2564 311.177 88.8642 307.573 88.8642C302.774 88.8642 298.817 87.7871 295.703 85.6329C292.589 83.4574 290.595 80.3221 289.721 76.2269L295.192 74.8832C295.895 77.8052 297.271 80.0128 299.319 81.5058C301.388 82.9988 304.107 83.7453 307.477 83.7453C311.252 83.7453 314.27 82.9028 316.531 81.2179C318.792 79.5116 319.922 77.3787 319.922 74.8192C319.922 72.8356 319.261 71.172 317.939 69.8283C316.616 68.4632 314.611 67.4608 311.924 66.8209L303.894 64.9013C299.628 63.8775 296.471 62.2565 294.424 60.0383C292.376 57.8201 291.352 55.0687 291.352 51.7841C291.352 49.0753 292.088 46.6971 293.56 44.6496C295.032 42.5807 297.058 40.9597 299.639 39.7866C302.219 38.6135 305.163 38.027 308.469 38.027C312.969 38.027 316.563 39.0508 319.25 41.0983C321.959 43.1246 323.911 45.9186 325.105 49.4806Z" fill="black"/>
<path d="M258.531 107.292C255.183 107.292 252.25 106.855 249.733 105.981C247.216 105.127 245.094 103.954 243.367 102.461C241.639 100.968 240.295 99.294 239.335 97.4384L244.006 94.3671C244.71 95.6042 245.649 96.8199 246.822 98.0143C248.016 99.2087 249.563 100.201 251.461 100.99C253.38 101.779 255.737 102.173 258.531 102.173C262.882 102.173 266.391 101.086 269.057 98.9101C271.745 96.7346 273.088 93.354 273.088 88.7683V77.6986H272.576C271.915 79.1916 270.966 80.6846 269.729 82.1777C268.492 83.6493 266.871 84.8758 264.866 85.8569C262.882 86.838 260.419 87.3286 257.476 87.3286C253.551 87.3286 250.064 86.3581 247.014 84.4172C243.985 82.4763 241.596 79.7035 239.847 76.0989C238.12 72.473 237.256 68.154 237.256 63.1417C237.256 58.1721 238.098 53.7996 239.783 50.0244C241.49 46.2492 243.868 43.3059 246.918 41.1943C249.968 39.0828 253.519 38.027 257.572 38.027C260.579 38.027 263.074 38.5602 265.058 39.6266C267.042 40.6718 268.631 41.9728 269.825 43.5298C271.041 45.0868 271.99 46.6012 272.672 48.0729H273.248V38.6988H278.815V89.1202C278.815 93.2793 277.93 96.7026 276.16 99.39C274.389 102.077 271.979 104.061 268.929 105.341C265.879 106.642 262.413 107.292 258.531 107.292ZM258.147 82.1137C261.304 82.1137 264.002 81.3565 266.242 79.8422C268.481 78.3065 270.198 76.1096 271.393 73.2515C272.587 70.3935 273.184 66.9915 273.184 63.0457C273.184 59.2065 272.598 55.8046 271.425 52.8398C270.252 49.8538 268.545 47.5076 266.306 45.8013C264.088 44.0737 261.368 43.2099 258.147 43.2099C254.863 43.2099 252.09 44.095 249.829 45.8653C247.568 47.6356 245.862 50.0244 244.71 53.0318C243.559 56.0178 242.983 59.3558 242.983 63.0457C242.983 66.7996 243.569 70.1162 244.742 72.9956C245.915 75.8537 247.632 78.0932 249.893 79.7142C252.154 81.3138 254.905 82.1137 258.147 82.1137Z" fill="black"/>
<path d="M205.159 88.9602C202.194 88.9602 199.485 88.3843 197.032 87.2326C194.579 86.0595 192.628 84.3745 191.177 82.1776C189.727 79.9594 189.002 77.272 189.002 74.1154C189.002 71.6839 189.461 69.6363 190.378 67.9727C191.295 66.309 192.596 64.944 194.281 63.8775C195.966 62.8111 197.96 61.9686 200.264 61.35C202.567 60.7315 205.105 60.2516 207.878 59.9104C210.629 59.5691 212.954 59.2705 214.852 59.0145C216.772 58.7586 218.233 58.3533 219.236 57.7988C220.238 57.2443 220.739 56.3484 220.739 55.1114V53.9596C220.739 50.611 219.737 47.9769 217.732 46.0573C215.748 44.1164 212.89 43.1459 209.158 43.1459C205.617 43.1459 202.727 43.9244 200.488 45.4814C198.269 47.0384 196.712 48.8727 195.817 50.9842L190.41 49.0327C191.519 46.3452 193.054 44.2017 195.017 42.602C196.979 40.981 199.176 39.8186 201.607 39.1148C204.039 38.3896 206.502 38.027 208.998 38.027C210.875 38.027 212.826 38.2723 214.852 38.7628C216.9 39.2534 218.798 40.1065 220.547 41.3223C222.296 42.5167 223.715 44.191 224.802 46.3452C225.89 48.4781 226.434 51.1869 226.434 54.4715V87.8405H220.739V80.0661H220.387C219.705 81.5165 218.692 82.9242 217.348 84.2892C216.004 85.6542 214.319 86.774 212.293 87.6485C210.267 88.523 207.889 88.9602 205.159 88.9602ZM205.926 83.7453C208.955 83.7453 211.579 83.0735 213.797 81.7297C216.015 80.386 217.721 78.6051 218.916 76.3869C220.131 74.1473 220.739 71.6839 220.739 68.9964V61.8939C220.313 62.2992 219.598 62.6618 218.596 62.9817C217.615 63.3016 216.473 63.5896 215.172 63.8455C213.893 64.0801 212.613 64.2828 211.333 64.4534C210.054 64.624 208.902 64.7733 207.878 64.9013C205.105 65.2426 202.738 65.7758 200.775 66.501C198.813 67.2261 197.31 68.2286 196.264 69.5083C195.219 70.7667 194.697 72.3877 194.697 74.3713C194.697 77.3573 195.763 79.6715 197.896 81.3138C200.029 82.9348 202.706 83.7453 205.926 83.7453Z" fill="black"/>
<path d="M178.166 22.3188V87.841H172.472V22.3188H178.166Z" fill="black"/>
<path d="M122.67 87.841V22.3188H160.582V27.6937H128.653V52.3604H157.607V57.7353H128.653V87.841H122.67Z" fill="black"/>
<path d="M91.8938 65.4726C92.1531 65.4726 92.3449 65.7144 92.2833 65.9663C89.114 78.9194 78.9177 89.1147 65.9644 92.2833C65.7125 92.3449 65.4707 92.153 65.4707 91.8937V87.7186C65.4707 87.5361 65.5938 87.3764 65.7697 87.3273C76.2001 84.4171 84.4155 76.2017 87.3264 65.7715C87.3755 65.5957 87.5351 65.4726 87.7177 65.4726H91.8938ZM27.088 65.4726C27.2705 65.4726 27.4302 65.5957 27.4793 65.7715C30.3898 76.2007 38.6041 84.4153 49.0331 87.3263C49.2089 87.3754 49.332 87.5351 49.332 87.7176V91.8927C49.332 92.152 49.0902 92.3439 48.8383 92.2823C35.8865 89.1127 25.6913 78.9183 22.5223 65.9663C22.4607 65.7144 22.6526 65.4726 22.9119 65.4726H27.088ZM49.332 27.0879C49.332 27.2705 49.2089 27.4301 49.0331 27.4792C38.6037 30.3902 30.3886 38.6053 27.4783 49.035C27.4292 49.2108 27.2696 49.3339 27.087 49.3339H22.9119C22.6526 49.3339 22.4607 49.0921 22.5223 48.8402C25.6911 35.8879 35.8862 25.6928 48.8383 22.5233C49.0902 22.4617 49.332 22.6535 49.332 22.9128V27.0879ZM65.4707 22.9118C65.4707 22.6525 65.7125 22.4606 65.9644 22.5223C78.918 25.6909 89.1142 35.8868 92.2833 48.8402C92.3449 49.0921 92.1531 49.3339 91.8938 49.3339H87.7187C87.5361 49.3339 87.3764 49.2108 87.3274 49.035C84.4167 38.6043 76.2005 30.3885 65.7697 27.4782C65.5938 27.4292 65.4707 27.2695 65.4707 27.0869V22.9118Z" fill="black"/>
<path d="M66.7304 47.7663C66.856 47.6634 67.0392 47.6725 67.154 47.7873C67.2683 47.9016 67.2779 48.0838 67.1761 48.2095L50.6461 68.6184C50.4953 68.8045 50.2166 68.8191 50.0472 68.6498L46.3997 65.0022C46.231 64.8335 46.2447 64.5561 46.4292 64.4049L66.7304 47.7663Z" fill="black"/>
<rect x="55.5947" y="81.8203" width="3.22768" height="17.7522" rx="0.40346" fill="black"/>
<rect x="55.5947" y="14.8456" width="3.22768" height="17.7522" rx="0.40346" fill="black"/>
<rect x="99.5713" y="55.5949" width="3.22768" height="17.7522" rx="0.40346" transform="rotate(90 99.5713 55.5949)" fill="black"/>
<rect x="32.5977" y="55.5949" width="3.22768" height="17.7522" rx="0.40346" transform="rotate(90 32.5977 55.5949)" fill="black"/>
</svg>
