<svg width="230" height="230" viewBox="0 0 230 230" fill="none" xmlns="http://www.w3.org/2000/svg">
<path d="M40.3391 135.481C40.7916 135.481 41.1873 135.786 41.309 136.222C48.5229 162.075 68.8887 182.441 94.7412 189.654C95.177 189.776 95.4822 190.172 95.4822 190.624V200.968C95.4822 201.61 94.8828 202.086 94.2586 201.933C62.1541 194.079 36.8837 168.809 29.0292 136.705C28.8764 136.081 29.352 135.481 29.9947 135.481H40.3391ZM200.97 135.481C201.612 135.481 202.088 136.081 201.935 136.705C194.081 168.809 168.81 194.079 136.706 201.933C136.082 202.086 135.482 201.61 135.482 200.968V190.624C135.482 190.172 135.787 189.776 136.223 189.654C162.076 182.44 182.441 162.075 189.655 136.222C189.777 135.786 190.173 135.481 190.625 135.481H200.97ZM95.4822 40.3371C95.4822 40.7896 95.177 41.1854 94.7412 41.307C68.8885 48.5208 48.5229 68.8875 41.309 94.7402C41.1873 95.176 40.7916 95.4812 40.3391 95.4812H29.9947C29.352 95.4812 28.8764 94.8818 29.0292 94.2576C36.8836 62.153 62.154 36.8826 94.2586 29.0282C94.8828 28.8755 95.4822 29.351 95.4822 29.9937V40.3371ZM135.482 29.9937C135.482 29.3511 136.082 28.8755 136.706 29.0282C168.81 36.8827 194.081 62.1531 201.935 94.2576C202.088 94.8818 201.612 95.4812 200.97 95.4812H190.625C190.173 95.4812 189.777 95.176 189.655 94.7402C182.442 68.8876 162.076 48.5209 136.223 41.307C135.787 41.1854 135.482 40.7896 135.482 40.3371V29.9937Z" fill="black"/>
<path d="M138.599 91.596C138.91 91.3408 139.364 91.3633 139.649 91.6479C139.932 91.9313 139.956 92.3829 139.704 92.6943L98.7331 143.279C98.3595 143.74 97.6686 143.777 97.2489 143.357L88.2082 134.316C87.7901 133.898 87.8241 133.21 88.2814 132.836L138.599 91.596Z" fill="black"/>
<rect x="111" y="176" width="8" height="44" rx="1" fill="black"/>
<rect x="111" y="10" width="8" height="44" rx="1" fill="black"/>
<rect x="220" y="111" width="8" height="44" rx="1" transform="rotate(90 220 111)" fill="black"/>
<rect x="54" y="111" width="8" height="44" rx="1" transform="rotate(90 54 111)" fill="black"/>
</svg>
